<?xml version="1.0" encoding="utf-8"?>
<!-- Generator: Adobe Illustrator 22.0.1, SVG Export Plug-In . SVG Version: 6.00 Build 0)  -->
<svg version="1.1" id="Layer_4" xmlns="http://www.w3.org/2000/svg" xmlns:xlink="http://www.w3.org/1999/xlink" x="0px" y="0px"
	 viewBox="0 0 86 114.2" style="enable-background:new 0 0 86 114.2;" xml:space="preserve">
<style type="text/css">
	.st0{fill:#FFFFFF;}
	.st1{fill:#943106;}
</style>
<g>
	<path class="st0" d="M20,28.2h46c11,0,20,9,20,20v46c0,11-9,20-20,20H20c-11,0-20-9-20-20v-46C0,37.1,9,28.2,20,28.2z"/>
	<circle class="st1" cx="42" cy="72.2" r="24"/>
	<circle class="st0" cx="41.9" cy="72.1" r="19.6"/>
	<g>
		<path class="st0" d="M13.5,20.6c-0.7-0.8-1.1-1.9-1.1-3.4v-14h2.9v14.3c0,0.6,0.1,1.1,0.4,1.4c0.3,0.3,0.6,0.4,1.1,0.4
			c0.5,0,0.8-0.1,1.1-0.4c0.3-0.3,0.4-0.7,0.4-1.4V3.1H21v14c0,1.5-0.4,2.6-1.1,3.4c-0.7,0.8-1.8,1.2-3.2,1.2
			C15.3,21.8,14.2,21.4,13.5,20.6z"/>
		<path class="st0" d="M23,3.1h4.3c1.4,0,2.5,0.4,3.2,1.2c0.7,0.8,1.1,1.9,1.1,3.4v1.8c0,1.5-0.4,2.6-1.1,3.4
			c-0.7,0.8-1.8,1.2-3.2,1.2h-1.4v7.5H23V3.1z M27.3,11.4c0.5,0,0.8-0.1,1.1-0.4c0.2-0.3,0.4-0.7,0.4-1.3V7.4c0-0.6-0.1-1.1-0.4-1.3
			c-0.2-0.3-0.6-0.4-1.1-0.4h-1.4v5.7H27.3z"/>
		<path class="st0" d="M33.2,3.1h2.9v15.8h4.8v2.6h-7.7V3.1z"/>
		<path class="st0" d="M43,20.5c-0.8-0.8-1.1-1.9-1.1-3.4V7.4C41.9,6,42.3,4.8,43,4c0.8-0.8,1.8-1.2,3.3-1.2c1.4,0,2.5,0.4,3.3,1.2
			c0.8,0.8,1.1,1.9,1.1,3.4v9.7c0,1.5-0.4,2.6-1.1,3.4c-0.8,0.8-1.8,1.2-3.3,1.2C44.9,21.8,43.8,21.3,43,20.5z M47.8,17.3v-10
			c0-1.2-0.5-1.8-1.5-1.8c-1,0-1.5,0.6-1.5,1.8v10c0,1.2,0.5,1.8,1.5,1.8C47.3,19.1,47.8,18.5,47.8,17.3z"/>
		<path class="st0" d="M54.8,3.1h3.9l3,18.4h-2.9l-0.5-3.7v0.1H55l-0.5,3.6h-2.7L54.8,3.1z M58,15.4l-1.3-9.1h-0.1l-1.3,9.1H58z"/>
		<path class="st0" d="M63.1,3.1h4.4c1.4,0,2.5,0.4,3.2,1.2c0.7,0.8,1.1,1.9,1.1,3.4v9.3c0,1.5-0.4,2.6-1.1,3.4
			c-0.7,0.8-1.8,1.2-3.2,1.2h-4.4V3.1z M67.5,18.9c0.5,0,0.8-0.1,1.1-0.4c0.3-0.3,0.4-0.7,0.4-1.4V7.5c0-0.6-0.1-1.1-0.4-1.4
			c-0.3-0.3-0.6-0.4-1.1-0.4H66v13.2H67.5z"/>
	</g>
</g>
</svg>
